<svg xmlns="http://www.w3.org/2000/svg" viewBox="0 0 59.92 59.93"><defs><style>.cls-1{fill:#fff;}</style></defs><title>Asset 7</title><g id="Layer_2" data-name="Layer 2"><g id="Capa_1" data-name="Capa 1"><path class="cls-1" d="M11.85,18.61c3.73,0,7.45,0,11.17,0a8.3,8.3,0,0,1,3.66.82c3.37,1.67,4.12,6.7,1.35,9-.26.22-.54.41-.84.63,4.6,2.23,3.85,8.55.41,10.89a8.55,8.55,0,0,1-4.82,1.31c-3.64.07-7.28,0-10.93,0Zm8.51,18.62a14.18,14.18,0,0,0,3-.15,2.69,2.69,0,0,0,2.15-3,2.45,2.45,0,0,0-2.25-2.59,41.45,41.45,0,0,0-5.46-.14c-.46,0-.61.22-.61.64q0,2.29,0,4.59c0,.44.19.64.63.63Zm.08-9.77a11.63,11.63,0,0,0,3-.2A2.14,2.14,0,0,0,25,24.72a2,2,0,0,0-1.95-1.88,40.75,40.75,0,0,0-5.3-.15c-.48,0-.58.27-.58.67,0,1.13,0,2.25,0,3.38,0,.51.21.73.72.72C18.67,27.44,19.44,27.46,20.44,27.46Z"/><path class="cls-1" d="M48.07,33.74l-10.7,0c-.95,0-1,.08-.81,1a3.26,3.26,0,0,0,2.6,2.65c1.52.33,3,.23,4-1.16a1.3,1.3,0,0,1,1.15-.59c.88,0,1.77,0,2.65,0s1.14.19.72,1.14a6.78,6.78,0,0,1-4.21,3.85,9.41,9.41,0,0,1-8.26-1,6.19,6.19,0,0,1-2.7-3.49,11.65,11.65,0,0,1,0-7.2c1.23-3.7,4.69-5.55,8.78-5,3.66.46,5.71,2.38,6.63,5.94,0,.15.1.31.14.46Zm-8-3c.91,0,1.82,0,2.73,0,.69,0,.85-.25.67-.88a3.32,3.32,0,0,0-3.56-2.4,3.28,3.28,0,0,0-3.24,2.72c-.09.48.11.56.5.55Z"/><path class="cls-1" d="M40.07,19.53c1.29,0,2.57,0,3.86,0,.55,0,.79.22.76.76v.08C44.76,22,44.76,22,43.16,22c-2.25,0-4.5,0-6.75,0-.81,0-1.14-.28-1-1.08a4.56,4.56,0,0,0,0-.64c0-.54.21-.77.76-.76C37.45,19.55,38.76,19.53,40.07,19.53Z"/><path class="cls-1" d="M30,2.73A27.23,27.23,0,1,1,2.73,30,27.23,27.23,0,0,1,30,2.73M30,0a30,30,0,1,0,30,30A30,30,0,0,0,30,0Z"/></g></g></svg>