<svg xmlns="http://www.w3.org/2000/svg" viewBox="0 0 59.57 59.57"><defs><style>.cls-1{fill:#fff;}</style></defs><title>Asset 6</title><g id="Layer_2" data-name="Layer 2"><g id="Capa_1" data-name="Capa 1"><path class="cls-1" d="M39,11.82a12,12,0,0,1,2.56.69,9.73,9.73,0,0,1,5.26,5,10.31,10.31,0,0,1,1,4.61q0,7.8,0,15.58a9.83,9.83,0,0,1-3.45,7.71,9.42,9.42,0,0,1-5.2,2.33,37.67,37.67,0,0,1-4.38.08c-4.25,0-8.49,0-12.73,0a9.84,9.84,0,0,1-6.67-2.33,9.61,9.61,0,0,1-3.47-6.33,40.27,40.27,0,0,1-.08-4.66c0-4.26,0-8.52,0-12.77a9.92,9.92,0,0,1,8.55-9.81l.23-.06ZM29.8,15.07H24.75a32.74,32.74,0,0,0-3.71,0,6.65,6.65,0,0,0-6,6.74c0,4.54,0,9.07,0,13.61a24.06,24.06,0,0,0,.07,3.29,6.62,6.62,0,0,0,6.46,5.75h3.27c4.4,0,8.81,0,13.22,0a6.27,6.27,0,0,0,4.67-2.16,6.6,6.6,0,0,0,1.75-4.64q0-7.92,0-15.82A7.23,7.23,0,0,0,44,19.26a6.64,6.64,0,0,0-5.92-4.19C35.35,15.05,32.57,15.07,29.8,15.07Z"/><path class="cls-1" d="M29.83,20.5a9.29,9.29,0,1,1-9.32,9.23A9.28,9.28,0,0,1,29.83,20.5Zm0,3.27a6,6,0,1,0,6,6A6,6,0,0,0,29.79,23.77Z"/><path class="cls-1" d="M39.42,22.52a2.34,2.34,0,0,1-2.35-2.33,2.37,2.37,0,1,1,4.74,0A2.34,2.34,0,0,1,39.42,22.52Z"/><path class="cls-1" d="M29.79,2.72A27.07,27.07,0,1,1,2.72,29.79,27.06,27.06,0,0,1,29.79,2.72m0-2.72A29.79,29.79,0,1,0,59.57,29.79,29.82,29.82,0,0,0,29.79,0Z"/></g></g></svg>