<svg xmlns="http://www.w3.org/2000/svg" viewBox="0 0 165 82.91"><defs><style>.cls-1{fill:#30bde8;}.cls-2{fill:#1e54a1;}.cls-3{fill:#fff;}</style></defs><title>Recurso 202</title><g id="Capa_2" data-name="Capa 2"><g id="Capa_1-2" data-name="Capa 1"><path class="cls-1" d="M132.5,16.23a2.93,2.93,0,0,0-1.95.09,45.35,45.35,0,0,1-6.8.9,14.41,14.41,0,0,0-3.7.78,10.6,10.6,0,0,1-3.87.81,5.08,5.08,0,0,1-1.08-.09,1.17,1.17,0,0,1-.81-1.68,4.28,4.28,0,0,1,1.37-1.88A16.53,16.53,0,0,0,120,9.69a16.82,16.82,0,0,1,8.58-7.45,32.57,32.57,0,0,1,6.55-2,15.28,15.28,0,0,1,7,.36,11.58,11.58,0,0,0,5.16.22A18.54,18.54,0,0,1,159,2.74a8.74,8.74,0,0,1,1.48,1,.65.65,0,0,1-.21,1.15c-.44.19-.91.31-1.37.46-.91.31-1.84.58-2.73.93a3.68,3.68,0,0,0-1.83,1.39c.17.11.27.23.34.21a2.06,2.06,0,0,1,2.3,1,39.85,39.85,0,0,1,6.71,11.91,28.7,28.7,0,0,1,1.16,12.13c-.12,1.14-.23,2.27-.45,3.4a19,19,0,0,1-3.26,7.77c-.79,1.07-1.55,2.15-2.32,3.23a3.08,3.08,0,0,0,0,4c.18.24.34.5.52.74a8.86,8.86,0,0,1,1.41,8.39,18.25,18.25,0,0,1-1.57,3.84c-.23.4-.38,1-.92,1s-.53-.7-.68-1.12a4.08,4.08,0,0,1-.11-.53,4.85,4.85,0,0,0-2.3-3.11l-.15-.1A5.81,5.81,0,0,1,151.66,55c0-.64-.2-.75-.78-.5a6.38,6.38,0,0,1-4.39.46,6.05,6.05,0,0,1-2.25-1.11,5.24,5.24,0,0,0-4.88-1.19.56.56,0,0,1-.49-.13.58.58,0,0,1,0-.5A9.37,9.37,0,0,1,144,47.7a15.35,15.35,0,0,1,5.12-1,23.71,23.71,0,0,0,3.06-.29,3.12,3.12,0,0,0,2.38-1.75,12.51,12.51,0,0,0,1.16-3.41,19.77,19.77,0,0,0,0-8.44,21.48,21.48,0,0,0-4.49-9.56,13.74,13.74,0,0,0-2.85-2.48c-.85-.57-1.72-1.12-2.62-1.61a1.36,1.36,0,0,1-.79-1.47,2.87,2.87,0,0,1,.44-1.75,12.87,12.87,0,0,1,4.33,2.59,20.46,20.46,0,0,1,3.72,4.18c.3.45.64.87,1,1.31a1.61,1.61,0,0,0,.15.3c.06.09.18.21.25.2a.28.28,0,0,0,.2-.37,2.45,2.45,0,0,0-.23-.44A15.51,15.51,0,0,0,151.46,18a15.27,15.27,0,0,0-4-3.63,5.19,5.19,0,0,0-1.82-.75c-.94-.15-1.42.08-1.5,1.05a25.2,25.2,0,0,0-.34,5.75,7.1,7.1,0,0,1-.13,3.22.59.59,0,0,1-.84.4,7.3,7.3,0,0,1-3-2.27,13.83,13.83,0,0,1-1.63-2.8c-.5-1-1-2.06-1.54-3.06a1,1,0,0,0-1.35-.56c-.46.21-1.13-.06-1.41.59l0,0c-.56-.14-1.13-.3-1.48.38Zm22.72,8.89-.11-.14s-.11.08-.11.13.06.09.1.14Z"/><path class="cls-2" d="M131,56.79a9.66,9.66,0,0,1-2.42,3.32,32.86,32.86,0,0,1-11.43,7.44,37.18,37.18,0,0,1-9.63,2.32,58,58,0,0,1-6.31.37A67.4,67.4,0,0,1,81,67.14c-3.75-1.13-7.38-2.59-11-4-5-1.92-10-3.81-15-5.72a107.4,107.4,0,0,0-19.84-5.34,64.05,64.05,0,0,0-13.13-1,51.41,51.41,0,0,0-15.4,2.78c-.57.2-1.15.34-1.73.51L4.52,54a11.57,11.57,0,0,1,3.6-2A49.85,49.85,0,0,1,18.38,49.2a77.44,77.44,0,0,1,13-1.06,81.75,81.75,0,0,1,13.31,1.19C55.19,51,65.2,54.41,75,58.38q4.61,1.86,9.24,3.65a59.69,59.69,0,0,0,15.79,3.7,42.87,42.87,0,0,0,27.27-6.54c1-.63,2-1.41,2.93-2.12.24-.17.45-.42.79-.27Z"/><path class="cls-2" d="M105.38,27.56l-.33,1a2.71,2.71,0,0,1-2.42,1.88,7.05,7.05,0,0,1-1.8,0A2.13,2.13,0,0,1,98.88,28c0-.3.11-.59.13-.89a.78.78,0,0,0-.93-.83,2.94,2.94,0,0,0-1.48.62c-.79.6-.81,1.08,0,1.74a11.73,11.73,0,0,0,1.15.87,4.54,4.54,0,0,1-.24,7.42,10.86,10.86,0,0,1-6.31,1.87,8.87,8.87,0,0,0-2.16.14,12.27,12.27,0,0,0-1.21.37c-.58.23-.9.67-.81,1.05s.55.64.95.74a22,22,0,0,0,5.33.92,17.14,17.14,0,0,1,4.82.67A9.25,9.25,0,0,1,101,44.08a3.88,3.88,0,0,1,.68,6.11,8.73,8.73,0,0,1-3.51,2.49,24.53,24.53,0,0,1-13.5,1.25,8.89,8.89,0,0,1-3.78-1.64A4.19,4.19,0,0,1,80,46.23a6.78,6.78,0,0,1,2.34-2c1.06-.56,2.13-1.1,3.32-1.71-.58-.33-1.1-.56-1.55-.88a1.62,1.62,0,0,1,.05-2.93c.24-.16.59-.16.78-.6-.46-.28-.93-.61-1.43-.88-3.52-1.87-3-6.46-.16-8.22a9.64,9.64,0,0,1,4.92-1.61,40.82,40.82,0,0,1,4.16.1,2.83,2.83,0,0,0,2.43-.9c2.1-2.19,4.67-2.55,7.49-1.88a4.09,4.09,0,0,1,1.76.87,2.33,2.33,0,0,0,2,.48,7,7,0,0,0,4.12-2.06,8.23,8.23,0,0,1,.76-.77.7.7,0,0,1,1.13.41c.1.65.12,1.32.16,2,0,.14.05.25.2.25s.27,0,.31-.07c.28-.39.52-.81.79-1.21a6.31,6.31,0,0,1,6-2.95,8.3,8.3,0,0,1,2.64.56,2.93,2.93,0,0,1,2,2.76,3.1,3.1,0,0,1-1.75,3.12,4.57,4.57,0,0,1-4.19,0,1.61,1.61,0,0,1-.47-2.47,2.12,2.12,0,0,1,1.55-.82,2,2,0,0,0,1.16-.44.64.64,0,0,0,0-.94,1.6,1.6,0,0,0-.82-.33,4.21,4.21,0,0,0-4.4,2.2A10.75,10.75,0,0,0,114,29.79a20.87,20.87,0,0,0,.47,6.11q.31,1.41.63,2.82c.32,1.39.54,1.58,1.93,1.65a3.87,3.87,0,0,1,1.42.17.52.52,0,0,1,.11.76,1.72,1.72,0,0,1-1.35.38,41.3,41.3,0,0,0-4.15.19q-2.71.22-5.38.71a3.89,3.89,0,0,1-1.79.1.67.67,0,0,1-.5-.66.56.56,0,0,1,.35-.57c.39-.14.82-.18,1.22-.28,2.35-.59,2.48-.79,2.23-3.06-.32-2.88-.66-5.75-1.06-8.61-.28-2-.37-2.22-2.55-2A1,1,0,0,0,105.38,27.56Zm-14,25.25a10.92,10.92,0,0,0,4-.94,4.12,4.12,0,0,0,.64-7.2,8.33,8.33,0,0,0-3.35-1.28A10.26,10.26,0,0,1,91,43.16a3.42,3.42,0,0,0-3.06.63,8,8,0,0,0-1.65,1.4,4.16,4.16,0,0,0,.91,6.42A7.16,7.16,0,0,0,91.35,52.81ZM87.29,33.64a12.65,12.65,0,0,0,.19,1.27,3,3,0,0,0,2.37,2.43,3.15,3.15,0,0,0,3.25-1,5.36,5.36,0,0,0,.82-5.73,2.5,2.5,0,0,0-1.11-1.14,4.62,4.62,0,0,0-2.25-.54,2.61,2.61,0,0,0-2.28,1.21A5.81,5.81,0,0,0,87.29,33.64Z"/><path class="cls-2" d="M134.82,33.39a30.57,30.57,0,0,0-1-5.83,3.34,3.34,0,0,0-5-2.24,2.85,2.85,0,0,0-.8.7,1,1,0,0,0,.23,1.56,9.48,9.48,0,0,0,.94.53c.37.2.76.37,1.12.58a1.79,1.79,0,0,1,1.06,1.92,1.93,1.93,0,0,1-1.6,1.53,4.46,4.46,0,0,1-2.68,0,3.31,3.31,0,0,1-2.42-2.86,4.23,4.23,0,0,1,1.6-4.17,7.61,7.61,0,0,1,7-1.38,8.31,8.31,0,0,1,6.24,6.38c.69,2.74,1.27,5.52,1.93,8.27.25,1.05.55,2.1.87,3.13a3.3,3.3,0,0,0,.52.94.76.76,0,0,0,.82.24.67.67,0,0,0,.53-.64c.05-.42,0-.84.08-1.26a.66.66,0,0,1,.52-.65,1,1,0,0,1,1,.25,1.32,1.32,0,0,1,.34.62c.28,2.18,0,3.76-2.62,4.67A5.6,5.6,0,0,1,137,43.14c-.35-.62-.61-1.29-1-2a3.2,3.2,0,0,0-1.21.7,10.53,10.53,0,0,1-8.67,1.27,5.32,5.32,0,0,1-1.64-.74,3.89,3.89,0,0,1-1-5.82,6.63,6.63,0,0,1,3.38-2.3,15.2,15.2,0,0,1,4.81-.69c.72,0,1.45.05,2.17.08A1.18,1.18,0,0,0,134.82,33.39ZM132,35a16.3,16.3,0,0,0-1.81.16,3.08,3.08,0,0,0-2.28,1.58,2.2,2.2,0,0,0,1.54,3.44,7.79,7.79,0,0,0,4.9-.61c1.53-.7,1.48-.83,1.17-2.14-.08-.35-.09-.71-.15-1.07-.17-1-.28-1.11-1.23-1.2C133.51,35.05,132.91,35,132,35Z"/><path class="cls-2" d="M27.27,30c.58-.76.94-1.24,1.31-1.7a7.47,7.47,0,0,1,7.22-2.79c.3,0,.6.08.89.14a5.3,5.3,0,0,1,4.46,6A35.19,35.19,0,0,1,40.29,37a9.43,9.43,0,0,0-.11,2.88A1.7,1.7,0,0,0,41,41.36c.51.32,1,.63,1.52,1a.61.61,0,0,1,.24.79.72.72,0,0,1-.72.44A4.06,4.06,0,0,1,40.38,43a19.31,19.31,0,0,0-5.15-1.64c-.89-.15-1.8-.17-2.69-.28s-1.4-.48-1.22-.8c.28-.5.8-.48,1.28-.5a14,14,0,0,1,1.44,0,1.29,1.29,0,0,0,1.37-.95,5,5,0,0,0,.34-1.21,21.63,21.63,0,0,0,.12-5.59c-.07-.47-.22-.94-.33-1.4a3,3,0,0,0-2.68-2.33,3.06,3.06,0,0,0-3,1.29A8.12,8.12,0,0,0,28.33,34a17.53,17.53,0,0,0,.14,4.32,3.58,3.58,0,0,0,2,2.83,7.22,7.22,0,0,1,.93.54c.16.12.07.36-.06.47a1,1,0,0,1-.51.16,6.89,6.89,0,0,1-1.26,0,46.93,46.93,0,0,0-7.22-.18,2.65,2.65,0,0,1-.88-.12.56.56,0,0,1-.33-.38.51.51,0,0,1,.23-.43,9.5,9.5,0,0,1,1.37-.42c.29-.07.6,0,.9-.08.84-.13,1.08-.37,1-1.18a29,29,0,0,0-.47-3.21,61.57,61.57,0,0,0-2-7.11,5.14,5.14,0,0,0-.19-.51.91.91,0,0,0-1-.59c-.53.08-1.06.24-1.59.32a2.25,2.25,0,0,1-.88-.06.57.57,0,0,1-.33-.39.56.56,0,0,1,.17-.47,2.85,2.85,0,0,1,.82-.36,11.84,11.84,0,0,0,4.64-2.71c.23-.2.43-.42.66-.62.77-.66,1.27-.55,1.64.38a21.6,21.6,0,0,1,1,4.21C27.1,28.85,27.16,29.26,27.27,30Z"/><path class="cls-2" d="M14.83,46.38A39.34,39.34,0,0,0,4.31,47.86a14.21,14.21,0,0,1-2.3.43,1.38,1.38,0,0,1-.69-.11.55.55,0,0,1-.13-.88A1.65,1.65,0,0,1,1.81,47c1.21-.35,2.42-.77,3.65-1C7.68,45.57,9,43.87,9,41.22q0-4.79,0-9.58c0-2.77-.13-5.54-.19-8.31a7.29,7.29,0,0,0-.5-2.65,2.57,2.57,0,0,0-1.82-1.6,13.93,13.93,0,0,0-2.5-.31,2.55,2.55,0,0,1-1.38-.33.55.55,0,0,1,0-.9,1.41,1.41,0,0,1,.85-.25,18.67,18.67,0,0,1,2.17.05,29.81,29.81,0,0,0,4.33.09c4.21-.14,8.43-.24,12.65-.35a3.05,3.05,0,0,1,1.42.11.58.58,0,0,1,.38.56.54.54,0,0,1-.38.55,5.57,5.57,0,0,1-1.06.17c-1.14.11-2.28.16-3.42.3-2.52.32-3.62,1.28-4.2,3.77-.43,1.88-.8,3.77-1.07,5.68a104.71,104.71,0,0,0-1.18,13.67c0,2.47.23,2.76,2.74,3a6,6,0,0,1,2.13.34.57.57,0,0,1,.26.41.68.68,0,0,1-.19.47,1.38,1.38,0,0,1-1,.32C16.28,46.39,15.55,46.38,14.83,46.38Z"/><path class="cls-1" d="M133.77,47.88c.22.28.1.55,0,.83A17.61,17.61,0,0,1,131,53.33a24.58,24.58,0,0,1-10.88,7.78,49.63,49.63,0,0,1-8.69,2.38,53.77,53.77,0,0,1-6.65.56,44.69,44.69,0,0,1-19.81-4c-1-.44-2-.91-2.94-1.37-.1,0-.16-.17-.24-.26.33-.28.67-.08,1,0a66.15,66.15,0,0,0,11.55,1.93,64.61,64.61,0,0,0,13.16-.19A48.78,48.78,0,0,0,124.1,55a33.39,33.39,0,0,0,9-6.63,5.26,5.26,0,0,1,.53-.47S133.71,47.89,133.77,47.88Z"/><path class="cls-2" d="M70.41,34.77H68.78c-1.08,0-1.23.24-.85,1.32a5.54,5.54,0,0,0,6.71,3.52,2.88,2.88,0,0,0,2.2-3.85,7.1,7.1,0,0,0-.25-.68.66.66,0,0,1,.17-.81.84.84,0,0,1,.84-.19,2.42,2.42,0,0,1,1.66,2,3.81,3.81,0,0,1-.8,3.39,4.73,4.73,0,0,1-2.36,1.61,13.78,13.78,0,0,1-9.72-.43c-3.79-1.72-5.27-5-4.28-9.06a7.59,7.59,0,0,1,3.39-4.71,12.7,12.7,0,0,1,6.07-2.15,10.57,10.57,0,0,1,5.76,1.23,4.11,4.11,0,0,1,.84,6.49A8.6,8.6,0,0,1,75.55,34,11.93,11.93,0,0,1,70.41,34.77Zm-1-1.38a8,8,0,0,0,3.6-1,3.79,3.79,0,0,0,1.68-4.21,2.18,2.18,0,0,0-1.83-1.75,3.59,3.59,0,0,0-3.68,1.35,8.22,8.22,0,0,0-1.61,3.19C67,32.88,67.3,33.22,69.36,33.39Z"/><path class="cls-2" d="M56.71,25.61c.48,0,1,0,1.44,0a.48.48,0,0,1,.49.43.56.56,0,0,1-.46.66,7,7,0,0,1-.71.11l-2.33.31a2.88,2.88,0,0,0-2.35,1.72A15.61,15.61,0,0,0,51,37.41a9.19,9.19,0,0,0,.26,1.42,4.05,4.05,0,0,0,5.31,2.71,1.79,1.79,0,0,0,.88-.59.91.91,0,0,0,0-1.3c-.26-.25-.58-.44-.85-.68a1.54,1.54,0,0,1-.53-1.62,1.5,1.5,0,0,1,1.28-1.13A6.13,6.13,0,0,1,59,36.14a2,2,0,0,1,1.87,1.69,3.2,3.2,0,0,1-.19,1.95,5,5,0,0,1-2.89,2.83,10.65,10.65,0,0,1-8.6-.24,6.14,6.14,0,0,1-3.58-4.88A11.17,11.17,0,0,1,45.78,33c.3-1.23.7-2.43,1.05-3.64.1-.35.21-.69.28-1s-.17-.66-.63-.64-.72.07-1.08.08a8.84,8.84,0,0,1-1.08,0c-1-.08-1.63-.43-1.48-.73.28-.57.87-.54,1.39-.65.94-.2,1.88-.42,2.83-.58a5.76,5.76,0,0,0,4.11-3c.42-.73.8-1.49,1.2-2.23a2.26,2.26,0,0,1,1.48-1.23,1.19,1.19,0,0,1,1.62,1.32A16.2,16.2,0,0,1,55,22.79c-.14.59-.32,1.16-.46,1.75-.2.81,0,1.07.88,1.12.42,0,.84,0,1.27,0Z"/><path class="cls-1" d="M42.2,55.91a4.73,4.73,0,0,1-2.15-.22,70.76,70.76,0,0,0-13-.72A39.87,39.87,0,0,0,10.81,58.7a22.05,22.05,0,0,0-10.14,9,3.09,3.09,0,0,1-.33.41c-.37,0-.34-.28-.35-.51A12.19,12.19,0,0,1,5.47,57.12a22.26,22.26,0,0,1,7.43-3.2,40.1,40.1,0,0,1,11.81-1.37,58.33,58.33,0,0,1,14.61,2.22A11.21,11.21,0,0,1,42.2,55.91Z"/><path class="cls-1" d="M133.92,15.89a.7.7,0,0,0,.67.15c.9-.27,1.32.24,1.64,1a11.53,11.53,0,0,0,.71,1.45,3.53,3.53,0,0,1,.18,3.11.76.76,0,0,1-1.1.57,5.71,5.71,0,0,1-2.6-1.84,15.6,15.6,0,0,1-1.25-2A2.55,2.55,0,0,1,131.7,17c0-.49.83-.21.81-.78l0,0c.57.18,1.14.34,1.48-.38Z"/><path class="cls-2" d="M46.88,75.24c.31-.48.14-1,.2-1.43a2.15,2.15,0,0,1,.14-.69.5.5,0,0,1,.58-.32.75.75,0,0,1,.42.28,1.44,1.44,0,0,1,.19.67c0,2,0,4.08,0,6.12,0,.74-.25,1-1,.81A4.41,4.41,0,0,0,46,80.8a2.68,2.68,0,0,1-2.78-1.26,2.76,2.76,0,0,1,0-3.22A2.65,2.65,0,0,1,46,75.09ZM47,78a1.58,1.58,0,0,0-1.37-1.63,1.51,1.51,0,0,0-1.56,1.42,1.55,1.55,0,0,0,1.44,1.73A1.58,1.58,0,0,0,47,78Z"/><path class="cls-2" d="M146.87,80.94c-.27-.27-.56-.06-.83,0a2.93,2.93,0,0,1-3-3.23,2.83,2.83,0,0,1,3.44-2.54,2.86,2.86,0,0,0,1.24.06c.57-.1.85.11.86.6,0,1.56.09,3.13,0,4.68A2.67,2.67,0,0,1,145,82.79a1.26,1.26,0,0,1-.46-.26.56.56,0,0,1-.18-.64c.08-.25.24-.44.5-.43s.59.15.88.14A1.09,1.09,0,0,0,146.87,80.94Zm-1-1.38a1.61,1.61,0,0,0-.11-3.21,1.57,1.57,0,0,0-1.4,1.76A1.48,1.48,0,0,0,145.86,79.57Z"/><path class="cls-2" d="M5,80.85A4.25,4.25,0,0,1,1,78a4.07,4.07,0,0,1,1.42-4.66,4.36,4.36,0,0,1,4.91-.25c.47.3.67.66.55,1s-.59.54-1.21.2a3,3,0,0,0-2.92-.16,2.79,2.79,0,0,0-1.41,3.5,2.93,2.93,0,0,0,3.22,1.74C6,79.3,6.5,79,7,78.84a.64.64,0,0,1,.78.29.62.62,0,0,1-.16.81A3.86,3.86,0,0,1,5,80.85Z"/><path class="cls-2" d="M65,75.08c0-.56,0-1.16.11-1.75a.58.58,0,0,1,.61-.55.59.59,0,0,1,.56.6c0,.66,0,1.32,0,2,0,1.57,0,3.13,0,4.7,0,.54-.28.79-.83.64a3.71,3.71,0,0,0-1.59.09,2.83,2.83,0,0,1-3-3.76,2.79,2.79,0,0,1,2.89-2C64.12,75.07,64.52,75.35,65,75.08ZM65,78a1.61,1.61,0,0,0-1.59-1.59,1.58,1.58,0,0,0,.14,3.15A1.68,1.68,0,0,0,65,78Z"/><path class="cls-2" d="M160.68,78.09c0,.72,0,1.44,0,2.16a.5.5,0,0,1-.62.49,3.89,3.89,0,0,0-1.77.06,2.51,2.51,0,0,1-2.71-1.36,3,3,0,0,1,.06-3.09,2.54,2.54,0,0,1,2.76-1.26,3.23,3.23,0,0,0,1.58.06c.39-.12.7.17.71.59,0,.78,0,1.56,0,2.34ZM159.38,78a1.51,1.51,0,0,0-1.52-1.61,1.6,1.6,0,0,0,.14,3.19A1.54,1.54,0,0,0,159.38,78Z"/><path class="cls-2" d="M86.15,77.94c0,.66,0,1.32,0,2s-.27.95-.87.79a4.38,4.38,0,0,0-1.59.1,2.68,2.68,0,0,1-3-2.41A2.84,2.84,0,0,1,83,75.08a2.21,2.21,0,0,1,1.06.06,2.4,2.4,0,0,0,1.23.05c.63-.13.86.11.89.77S86.15,77.28,86.15,77.94ZM83.3,79.55a1.48,1.48,0,0,0,1.51-1.44,1.46,1.46,0,1,0-2.9-.31A1.57,1.57,0,0,0,83.3,79.55Z"/><path class="cls-2" d="M12.34,80.84A2.83,2.83,0,0,1,9.54,79a2.88,2.88,0,0,1,.67-3.17,2.67,2.67,0,0,1,3-.61,2.56,2.56,0,0,1,1.67,2c.17.78-.09,1.16-.88,1.2s-1.81,0-2.71,0c-.1,0-.27.1-.27.16a.79.79,0,0,0,.13.48,1.53,1.53,0,0,0,1.48.47,6.74,6.74,0,0,0,.85-.29.66.66,0,0,1,.81.2c.18.24,0,.63-.38.9A3.07,3.07,0,0,1,12.34,80.84Zm1.23-3.54c-.53-.91-.87-1.13-1.64-1-.54.08-1,.27-1,1Z"/><path class="cls-2" d="M53.17,79.59c.47.07.88-.26,1.34-.36a.49.49,0,0,1,.59.28.62.62,0,0,1-.15.66.58.58,0,0,1-.13.12,2.92,2.92,0,0,1-4.21-3.91,2.8,2.8,0,0,1,3.46-1.13,2.67,2.67,0,0,1,1.68,2.17.75.75,0,0,1-.75,1c-.78,0-1.56,0-2.34,0a2.08,2.08,0,0,0-.7.1c-.18.07-.17.29-.07.44A1.48,1.48,0,0,0,53.17,79.59ZM53,77.36h0c.29,0,.59,0,.88,0s.34,0,.41-.21a.42.42,0,0,0-.17-.46,1.64,1.64,0,0,0-2-.19.62.62,0,0,0-.37.55c0,.34.29.3.5.32S52.76,77.36,53,77.36Z"/><path class="cls-2" d="M138.86,80.85a2.91,2.91,0,0,1-.53-5.76,2.77,2.77,0,0,1,3.16,2c.23.82-.07,1.25-1,1.29s-1.8,0-2.69.08c-.08,0-.19.13-.21.21a.43.43,0,0,0,.07.32,1.51,1.51,0,0,0,1.44.54,5.51,5.51,0,0,0,.85-.27c.52-.15.84,0,.89.26a.8.8,0,0,1-.5.86A3.24,3.24,0,0,1,138.86,80.85Zm-.07-3.49c.36,0,.72,0,1.08,0a.33.33,0,0,0,.25-.17.39.39,0,0,0-.06-.33,1.59,1.59,0,0,0-2.24-.26.67.67,0,0,0-.25.44c0,.35.28.31.49.32S138.55,77.36,138.79,77.36Z"/><path class="cls-2" d="M70.89,75a2.85,2.85,0,0,1,2.85,2.49.74.74,0,0,1-.68.88c-.54,0-1.08,0-1.62,0s-1,0-1.44,0a.33.33,0,0,0-.24.19.42.42,0,0,0,.07.33,1.61,1.61,0,0,0,1.77.55c.35-.07.67-.24,1-.29a.53.53,0,0,1,.43.25c.07.13,0,.34,0,.51s-.06.1-.11.14a3,3,0,0,1-3.36.36A2.93,2.93,0,0,1,70.89,75Zm-1.18,2.35c.63,0,1.27,0,1.92,0,.25,0,.66.14.66-.31s-.31-.49-.57-.61a1.68,1.68,0,0,0-1.54,0A.75.75,0,0,0,69.71,77.37Z"/><path class="cls-2" d="M34.9,80.91a3,3,0,1,1,2.8-2.9A2.87,2.87,0,0,1,34.9,80.91Zm-1.38-3A1.47,1.47,0,0,0,35,79.56a1.53,1.53,0,0,0,1.48-1.5A1.59,1.59,0,0,0,35,76.38,1.47,1.47,0,0,0,33.52,77.89Z"/><path class="cls-2" d="M116.51,78A2.81,2.81,0,1,1,113.69,75,3,3,0,0,1,116.51,78Zm-1.35.08a1.46,1.46,0,1,0-2.91-.12,1.46,1.46,0,1,0,2.91.12Z"/><path class="cls-2" d="M100.77,75a2.95,2.95,0,0,1-.06,5.89,3,3,0,0,1,.06-5.89Zm1.42,2.91a1.51,1.51,0,0,0-1.41-1.56A1.54,1.54,0,0,0,99.27,78a1.47,1.47,0,1,0,2.92-.08Z"/><path class="cls-2" d="M16.75,77.88c0-.72,0-1.44,0-2.16a.6.6,0,0,1,.72-.62,4,4,0,0,0,1.41,0,2.34,2.34,0,0,1,2.7,2.06,20.22,20.22,0,0,1,0,3,.58.58,0,0,1-.58.56.56.56,0,0,1-.63-.51c-.07-.59-.05-1.19-.07-1.79a10.92,10.92,0,0,0-.07-1.25,1.06,1.06,0,0,0-1-.82,1,1,0,0,0-1.05.81,12.78,12.78,0,0,0-.08,1.43c0,.54,0,1.08-.07,1.61a.58.58,0,0,1-.62.53.56.56,0,0,1-.61-.54c0-.78,0-1.56,0-2.33Z"/><path class="cls-2" d="M77.52,80.84a3.14,3.14,0,0,1-2-.67.72.72,0,0,1-.18-1,.57.57,0,0,1,.79-.14,7.67,7.67,0,0,0,1,.44.93.93,0,0,0,.86-.12.52.52,0,0,0,.21-.27.39.39,0,0,0-.11-.3,2.09,2.09,0,0,0-1-.36,3,3,0,0,1-1.29-.62,1.43,1.43,0,0,1-.19-2,2.45,2.45,0,0,1,3.64,0,.59.59,0,0,1,0,.68.58.58,0,0,1-.63.23c-.47-.08-.85-.5-1.36-.37a.78.78,0,0,0-.42.25c-.14.2,0,.34.2.4.39.15.81.23,1.2.38,1,.38,1.51,1,1.39,1.84a1.94,1.94,0,0,1-1.77,1.54Z"/><path class="cls-2" d="M125.12,77.86q0-.27,0-.54c0-2.08,0-2.2.81-2.16,1.09.05,2.28-.44,3.24.52a2.42,2.42,0,0,1,.8,1.75c0,.84,0,1.68,0,2.52a1.18,1.18,0,0,1-.12.51.48.48,0,0,1-.59.27c-.15-.05-.38-.18-.39-.3-.07-.53-.08-1.07-.11-1.61a13.68,13.68,0,0,0-.08-1.43,1.16,1.16,0,0,0-1.09-1,1.18,1.18,0,0,0-1.16,1.14c-.05.6,0,1.2,0,1.8a6,6,0,0,1-.09,1.07.54.54,0,0,1-.55.39.49.49,0,0,1-.53-.39c-.07-.83-.09-1.67-.13-2.51Z"/><path class="cls-2" d="M25.47,80.79a1.16,1.16,0,0,1-1.17-.92,6.59,6.59,0,0,1-.07-1.07,10.39,10.39,0,0,1,0-1.8c.12-.78-1.46-.71-.78-1.69.89-.33.75-1.1.79-1.81a1.31,1.31,0,0,1,.18-.49.6.6,0,0,1,.93,0,1.56,1.56,0,0,1,.24,1,1.23,1.23,0,0,0,.59,1.21.52.52,0,0,1,0,.9c-.61.33-.61.84-.59,1.38A3.78,3.78,0,0,0,26,79.94C26.3,80.3,25.92,80.81,25.47,80.79Z"/><path class="cls-2" d="M133.92,80.77a1.14,1.14,0,0,1-1.25-.81,4.55,4.55,0,0,1-.13-1.07,7.72,7.72,0,0,1,0-1.8c.17-.8-1.47-.94-.69-1.74a2.15,2.15,0,0,0,.69-1.72,1,1,0,0,1,.14-.51.58.58,0,0,1,.59-.33.63.63,0,0,1,.54.42,2,2,0,0,1,.1.71,1.37,1.37,0,0,0,.64,1.38.53.53,0,0,1-.08.91,1,1,0,0,0-.54,1c.05.94-.21,1.92.47,2.78C134.62,80.28,134.29,80.74,133.92,80.77Z"/><path class="cls-2" d="M27.69,77.77c0-.72,0-1.44,0-2.15,0-.32.38-.61.63-.48a2.51,2.51,0,0,0,1.89,0,1.15,1.15,0,0,1,.53,0,.49.49,0,0,1,.41.51.69.69,0,0,1-.2.46,3.55,3.55,0,0,1-.65.27,2.21,2.21,0,0,0-1.33,2c0,.6,0,1.2-.05,1.8a.62.62,0,0,1-.56.6.65.65,0,0,1-.7-.65c0-.78,0-1.56,0-2.34Z"/><path class="cls-2" d="M151,77.94c0-.72,0-1.44,0-2.16,0-.4.38-.75.7-.62a2.53,2.53,0,0,0,1.73,0,1.34,1.34,0,0,1,.7,0,.65.65,0,0,1,.37.35.53.53,0,0,1-.2.63.47.47,0,0,1-.15.1c-1.53.36-1.9,1.46-1.84,2.86a4.62,4.62,0,0,1-.1,1.25.58.58,0,0,1-.7.41.54.54,0,0,1-.48-.47c0-.78,0-1.56,0-2.34Z"/><path class="cls-2" d="M88.38,77.87c0-.72,0-1.44,0-2.16,0-.33.32-.65.58-.54a3.65,3.65,0,0,0,2.09-.08.87.87,0,0,1,.51.1.67.67,0,0,1,.31.39.58.58,0,0,1-.14.48,2.07,2.07,0,0,1-.63.31,2.15,2.15,0,0,0-1.43,2.09c0,.6,0,1.2-.08,1.79a.62.62,0,0,1-1.22,0c0-.78,0-1.56,0-2.34Z"/><path class="cls-2" d="M109.69,76.89c0,1.08,0,2.15,0,3.23a.6.6,0,0,1-.52.63.67.67,0,0,1-.75-.6,4.35,4.35,0,0,1-.06-.71q0-2.69,0-5.39a2.61,2.61,0,0,1,0-.54c.08-.36.22-.69.66-.73a.68.68,0,0,1,.66.7c0,.3,0,.6,0,.9,0,.84,0,1.68,0,2.51Z"/><path class="cls-2" d="M106.83,76.82c0,1,0,1.91,0,2.87a2.5,2.5,0,0,1-.1.7.52.52,0,0,1-.55.35.54.54,0,0,1-.55-.36,1.64,1.64,0,0,1-.13-.52c0-2,0-4.07,0-6.1,0-.66.37-1.08.77-1s.56.56.56,1c0,1,0,2,0,3.05Z"/><path class="cls-2" d="M93.47,77.79c0-.72,0-1.44,0-2.15a.5.5,0,0,1,.64-.47A2.92,2.92,0,0,0,96,75.09a1.05,1.05,0,0,1,.53,0,.49.49,0,0,1,.41.51.7.7,0,0,1-.21.45,3.32,3.32,0,0,1-.65.28,2.15,2.15,0,0,0-1.34,2c0,.6,0,1.2-.06,1.8a.65.65,0,0,1-.74.61.63.63,0,0,1-.53-.63c0-.78,0-1.56,0-2.34Z"/><path class="cls-2" d="M164.47,76.71c0,1,0,1.93,0,2.89a2.64,2.64,0,0,1-.15.87.62.62,0,0,1-.42.27.52.52,0,0,1-.58-.31,1.27,1.27,0,0,1-.1-.52q0-3.07,0-6.14a2.12,2.12,0,0,1,0-.36.69.69,0,0,1,.55-.62c.31-.06.66.25.67.68,0,1.08,0,2.17,0,3.25Z"/><path class="cls-2" d="M123.09,77.83c0,.84,0,1.68,0,2.51a.51.51,0,0,1-.52.41.6.6,0,0,1-.57-.35.37.37,0,0,1,0-.17c0-1.5,0-3,0-4.49a.59.59,0,0,1,.56-.59c.32,0,.63.27.65.7,0,.66,0,1.32,0,2Z"/><path class="cls-2" d="M121.93,73.49a.61.61,0,1,1,1.2,0,.61.61,0,1,1-1.2,0Z"/><path class="cls-2" d="M4.82,54.37a1.2,1.2,0,0,1-.26.19c-.16.06-.37.1-.44-.07s.16-.24.26-.35A.54.54,0,0,1,4.52,54Z"/><path class="cls-2" d="M131.07,56.81l.05-.25c.27.19,0,.16-.09.23Z"/><path class="cls-3" d="M134,15.88c-.34.72-.91.56-1.48.38C132.82,15.57,133.39,15.74,134,15.88Z"/><path class="cls-3" d="M154.72,23.71a2.45,2.45,0,0,1,.23.44.28.28,0,0,1-.2.37c-.07,0-.18-.11-.25-.2a1.61,1.61,0,0,1-.15-.3Z"/><path class="cls-3" d="M155.22,25.12l-.12.13s-.1-.09-.1-.14.07-.09.11-.13Z"/></g></g></svg>