<svg xmlns="http://www.w3.org/2000/svg" viewBox="0 0 244.41 124.41"><defs><style>.cls-1{fill:#fff;}</style></defs><title>Recurso 12</title><g id="Capa_2" data-name="Capa 2"><g id="Capa_1-2" data-name="Capa 1"><path class="cls-1" d="M121.8,67.45a7.29,7.29,0,0,0-13.66.38l.06,4.48c-3.24-5.8-7.79-9.41-12.84-9.41-9.85,0-17.84,13.76-17.84,30.74s8,30.74,17.84,30.74c8.57,0,15.72-10.41,17.44-24.29a12.2,12.2,0,0,1,5.79.23,2.62,2.62,0,0,0,3.33-2.53ZM99.5,116.68c-4.46,0-9.24-12.19-9.24-23.05,0-12.73,4.14-23.05,9.24-23.05,4.23,0,7.79,7.09,8.88,16.76a38.69,38.69,0,0,1,.13,10.43C107.56,105.47,103.76,116.65,99.5,116.68Z"/><path class="cls-1" d="M37.78,53.79a4.55,4.55,0,0,1-4.53-4.15A80.12,80.12,0,0,1,42.37,4.33,4.55,4.55,0,0,1,47.4,2,47,47,0,0,1,76.71,22.89a4.68,4.68,0,0,1-1,6.2,4.56,4.56,0,0,1-6.61-1.24A38,38,0,0,0,52.31,13.23a3.81,3.81,0,0,0-5.05,2.08c-.89,2.17-1.66,4.38-2.33,6.62A71.72,71.72,0,0,0,42.3,48.69a4.67,4.67,0,0,1-3,4.83A4.52,4.52,0,0,1,37.78,53.79Z"/><path class="cls-1" d="M205.85,53.79a4.55,4.55,0,0,0,4.53-4.15,80.12,80.12,0,0,0-9.12-45.31,4.55,4.55,0,0,0-5-2.29,47,47,0,0,0-29.32,20.85,4.68,4.68,0,0,0,1,6.2,4.56,4.56,0,0,0,6.61-1.24,38,38,0,0,1,16.77-14.62,3.81,3.81,0,0,1,5.05,2.08c.89,2.17,1.66,4.38,2.33,6.62a71.72,71.72,0,0,1,2.63,26.76,4.67,4.67,0,0,0,3,4.83A4.52,4.52,0,0,0,205.85,53.79Z"/><path class="cls-1" d="M218.23,79.33c8.11-11.24,17.39-15.88,22.27-13.25,2.94,1.59,4.73,6.06,3.54,9.13C242.11,80.19,232,82.27,218.23,79.33Z"/><path class="cls-1" d="M217.65,85.65c13.71-2.06,23.52,1.33,25,6.65.92,3.21-1,7.62-4,8.92C233.74,103.32,225.19,97.56,217.65,85.65Z"/><path class="cls-1" d="M25.73,85.65C12,83.59,2.21,87,.69,92.3c-.92,3.21,1,7.62,4,8.92C9.64,103.32,18.19,97.56,25.73,85.65Z"/><path class="cls-1" d="M26.18,79.33C18.07,68.09,8.79,63.45,3.92,66.08,1,67.67-.82,72.14.37,75.21,2.3,80.19,12.4,82.27,26.18,79.33Z"/><path class="cls-1" d="M158.45,3.13A10.14,10.14,0,0,0,153.71.28a9.8,9.8,0,0,0-5.09.13,14.08,14.08,0,0,0-4.3,3.54c-4.39,5.52-6.27,18-7.05,28.75-4.09-.8-7.69-1.5-10.88-2.1-4.28-.8-7.75-1.37-8.47-1.49-12.38-2-32,1.13-44.17,7.62-4.07,2.17-7.91,5-8.91,9.3a9.68,9.68,0,0,0-.25,2.35c.06,9.85-2.37,34.14-3.24,40.06C60.22,96,57.18,116.62,54,116.53c-1.05,0-2.17-2.35-4-13.41a277.57,277.57,0,0,1-3.79-40.22,9.06,9.06,0,0,0-6.83-2.53,8.84,8.84,0,0,0-5.44,2.53,84,84,0,0,0,0,25.55,73.88,73.88,0,0,0,5.2,18.09c2.48,5.72,7.9,18.24,13.7,17.84,3.07-.21,5.48-4.16,7.35-8.44,8.28-19,9.44-50.72,9.54-67.45a8.75,8.75,0,0,1,.78-3,9.5,9.5,0,0,1,3.16-3.67c2.55-1.9,9.42-4.91,19-7.72a89.63,89.63,0,0,1,28.71-.27A101.41,101.41,0,0,1,137,37.36q-.15,6.91-.24,13.9-.21,17.09-.06,33.72a30.73,30.73,0,0,1,5.59-.57h.26a30.75,30.75,0,0,1,5.82.57q-.33-13.61-.16-28,.13-9.55.49-18.75a16.73,16.73,0,0,0,7.76-3.31c4.26-3.34,5.47-7.85,6.17-10.44C164.86,16.17,162.66,7.27,158.45,3.13Zm1.23,17.27c-.18,2.58-.54,7.84-4.74,11.19a12.29,12.29,0,0,1-6.05,2.5c.31-4.47.54-8.39.93-11.63a56.21,56.21,0,0,1,1.42-7.92c.3-1.11,2.55-7,4.74-6.85S160.08,14.72,159.69,20.39Z"/><path class="cls-1" d="M142.55,102.28a3.14,3.14,0,0,1-2.44-1.15L135.89,96a3.15,3.15,0,0,1,1.54-5,18,18,0,0,1,5-.73h.16a18,18,0,0,1,5.12.73,3.16,3.16,0,0,1,1.54,5L145,101.12A3.15,3.15,0,0,1,142.55,102.28Z"/><path class="cls-1" d="M209.08,101.09c-1.61.6-2,3.15-2.15,3.79-.94,4.75-7.92,14.59-14.67,15.18-4.23.37-7.69-3-9.87-5.06-6.68-6.43-7.16-15.09-7.21-17.61a39.46,39.46,0,0,0,11.64-2.82c4.7-1.94,10.29-4.25,12.9-9.39,3.29-6.5,1.34-16.55-6.32-20.9-7.16-4.06-14.93-1-16.7-.23-7.42,3.15-10.62,9.66-12.14,12.75-5.28,10.75-2.74,21.41-1.52,25.36s4.9,16.3,16.7,20.59l.72.25c.46.15,10,3.2,18.25-1,10.42-5.28,13.58-19.63,11.76-21A1.71,1.71,0,0,0,209.08,101.09ZM179.23,74.28c1.59-2.33,3.85-5.63,7.34-5.76,3.26-.12,5.6,2.61,6,3.1,2.89,3.52,2.37,8.63,1.08,11.45-2.54,5.56-10.19,9-19,8.22C174.55,87,175.11,80.3,179.23,74.28Z"/><path class="cls-1" d="M172.27,105.78c-.2-1.16-.64-3.67-2.65-4.7a4.42,4.42,0,0,0-4.11,0c-3.47,2.14.42,9.24-3.55,14.54-.16.21-3.27,4.25-7.4,3.61-2.81-.44-5.2-2.92-6.17-6.28v-7.71l-.12.15a7.4,7.4,0,0,1-11.44,0l-.14-.17V113c-1.29,3.62-4.33,6-7.56,6.09a8.31,8.31,0,0,1-6.93-4.22c-2.28-3.9.39-7.08-2.18-10.05a5.7,5.7,0,0,0-5.19-2,5.53,5.53,0,0,0-3.54,3c-1.59,3.48,1.27,7.59,2.33,9.46.84,1.48,5.74,8.59,14.73,9.14A18.93,18.93,0,0,0,141,120.29h1.48a18.87,18.87,0,0,0,11.56,4.13c9.94,0,15.4-8.45,15.85-9.17C170.78,113.88,173,110.15,172.27,105.78Z"/></g></g></svg>