<svg xmlns="http://www.w3.org/2000/svg" viewBox="0 0 59.57 59.57"><defs><style>.cls-1{fill:#fff;}</style></defs><title>Asset 5</title><g id="Layer_2" data-name="Layer 2"><g id="Capa_1" data-name="Capa 1"><path class="cls-1" d="M29.79,2.72A27.07,27.07,0,1,1,2.72,29.79,27.06,27.06,0,0,1,29.79,2.72m0-2.72A29.79,29.79,0,1,0,59.57,29.79,29.82,29.82,0,0,0,29.79,0Z"/><path class="cls-1" d="M29.79,13.79H45.48a4.09,4.09,0,0,1,4.3,4.27q0,11.72,0,23.44a4.09,4.09,0,0,1-4.29,4.28H14.07a4.08,4.08,0,0,1-4.28-4.29V18.14a4.1,4.1,0,0,1,4.36-4.35Zm15.86,16V23.58c0-1.75,0-3.49,0-5.23,0-.36-.11-.51-.48-.49s-.91,0-1.36,0a1.44,1.44,0,0,0-.83.24L30.17,26a.62.62,0,0,1-.76,0c-3.9-2.43-7.83-4.81-11.7-7.27a4.71,4.71,0,0,0-3.27-.91,0,0,0,0,1,0,0c-.37-.05-.49.12-.49.48q0,11.44,0,22.88c0,.41.16.5.53.5.91,0,1.83,0,2.75,0,.61,0,.61,0,.61-.63V24.74c0-.16-.09-.37.1-.46s.28.09.41.17l11.08,7a.63.63,0,0,0,.79,0c3.63-2.32,7.28-4.62,10.92-6.92.19-.12.38-.4.6-.26s.07.41.07.62c0,5.37,0,10.74,0,16.11,0,.68,0,.68.7.68H45c.61,0,.61,0,.61-.62C45.66,37.32,45.65,33.55,45.65,29.79Z"/></g></g></svg>